<svg width="76" height="75" fill="none" xmlns="http://www.w3.org/2000/svg"><g clip-path="url(#clip0)" stroke="#E9AA09" stroke-width="1.5"><path d="M51.628 68.5l.171.513h7.747a1.446 1.446 0 110 2.894H15.6a1.446 1.446 0 110-2.894h7.746l.171-.513 1.294-3.882h25.522l1.294 3.882zm6.471-50.775c0-.798.649-1.447 1.447-1.447s1.447.65 1.447 1.447c0 .799-.649 1.448-1.447 1.448a1.449 1.449 0 01-1.447-1.448z"/><path d="M12.653 45.54v-5.842a2.946 2.946 0 012.948-2.947h2.872c.126-.327.26-.65.404-.972l-2.032-2.033a2.946 2.946 0 010-4.168l6.214-6.214a2.946 2.946 0 014.168 0l2.033 2.033c.32-.143.644-.278.971-.404V22.12a2.946 2.946 0 012.948-2.947h8.789a2.946 2.946 0 012.947 2.947v2.873c.327.126.651.261.971.404l2.034-2.033h0a2.948 2.948 0 014.167 0h0l6.215 6.214a2.946 2.946 0 010 4.168L12.653 45.54zm0 0H.823V8.936a5.85 5.85 0 015.842-5.842h61.67c3.242 0 5.988 2.643 5.988 5.842V45.54h-11.83v-5.842a2.946 2.946 0 00-2.947-2.947h-2.873a20.95 20.95 0 00-.403-.972l2.032-2.033L12.653 45.54zm39.551-27.815a7.349 7.349 0 007.342 7.342c4.049 0 7.342-3.293 7.342-7.342 0-4.049-3.293-7.342-7.342-7.342-4.049 0-7.342 3.294-7.342 7.342z"/><path d="M31.953 45.54a5.244 5.244 0 01-.222-1.447 5.85 5.85 0 015.842-5.842 5.85 5.85 0 015.842 5.842c0 .48-.083.96-.222 1.447h-11.24z"/><path d="M23.472 40.435v-.001a14.35 14.35 0 011.546-3.722h0a2.948 2.948 0 00-.454-3.58s0 0 0 0l-1.468-1.47 2.047-2.046 1.469 1.469s0 0 0 0a2.94 2.94 0 003.585.451 14.352 14.352 0 013.717-1.545h.002a2.948 2.948 0 002.21-2.855v-2.069h2.895v2.07c0 1.344.909 2.518 2.21 2.854h.001a14.35 14.35 0 013.718 1.546c1.159.69 2.636.5 3.585-.453 0 0 0 0 0 0l1.469-1.468 2.046 2.046-1.468 1.47a2.948 2.948 0 00-.454 3.58h0a14.35 14.35 0 011.546 3.722v.001a2.949 2.949 0 002.855 2.21h2.07v2.895h-7.423c.077-.464.134-.95.134-1.447 0-6.472-5.265-11.737-11.737-11.737-6.471 0-11.736 5.265-11.736 11.736 0 .499.056.984.133 1.448h-7.422v-2.895h2.07a2.948 2.948 0 002.854-2.21zM6.665 58.723a5.85 5.85 0 01-5.842-5.841v-1.448h73.5v1.448c0 3.199-2.746 5.841-5.988 5.841H6.665z"/></g><defs><clipPath id="clip0"><path fill="#fff" d="M.073.001h75v75h-75z"/></clipPath></defs></svg>