<svg width="71" height="62" fill="none" xmlns="http://www.w3.org/2000/svg"><path d="M17.172 31.989v24.867H2.395c-.8 0-1.448-.647-1.448-1.447V33.436c0-.8.647-1.447 1.448-1.447h14.777zm-5.092 14.63a2.947 2.947 0 10-5.895 0 2.947 2.947 0 005.895 0zM52.22 23.2l.063-.808c.037-.47.214-1.008.434-1.552a31.58 31.58 0 01.858-1.875l.287-.588c.604-1.236 1.284-2.625 1.873-4.113 1.38-3.485 2.156-7.255.42-10.46v-.001c-.788-1.455-2.064-2.413-3.592-2.73a1.45 1.45 0 00-1.678.993L52.221 23.2zm0 0h.811m-.81 0h.81m0 0h14.476a2.546 2.546 0 010 5.092H59.67a2.947 2.947 0 000 5.894h7.837a2.546 2.546 0 010 5.092H59.67a2.947 2.947 0 000 5.895h7.837a2.546 2.546 0 010 5.091H59.67a2.947 2.947 0 100 5.895h3.296a2.546 2.546 0 010 5.092h-13.57a57.69 57.69 0 01-18.279-2.966h0a27.799 27.799 0 00-8.05-1.419M53.03 23.2L30.88 58.997a27.044 27.044 0 00-8.565-1.39h.75v-.74m0 0V31.963a11.445 11.445 0 007.279-3.298c1.12-1.091 1.95-1.936 2.631-2.628 1.44-1.463 2.206-2.242 3.598-3.213 5.254-3.64 8.283-6.992 10.279-10.39 1.8-3.065 2.74-6.142 3.728-9.375l.304-.994-27.819 54.8z" stroke="#E9AA09" stroke-width="1.5"/></svg>