<svg width="28" height="23" fill="none" xmlns="http://www.w3.org/2000/svg"><path d="M14 .253A19.8 19.8 0 00.338 5.702c-.21.21-.338.501-.338.828 0 .327.128.618.338.828l2.894 2.894a1.179 1.179 0 001.645.011A13.322 13.322 0 017.98 8.105c.385-.187.653-.583.653-1.05V3.438A17.008 17.008 0 0114 2.587c1.855 0 3.663.291 5.355.84v3.616c0 .455.268.864.653 1.05 1.144.572 2.159 1.307 3.115 2.159.21.21.502.326.794.326.35 0 .641-.128.851-.338l2.894-2.893c.21-.21.338-.502.338-.829 0-.326-.14-.606-.35-.816A19.793 19.793 0 0014 .253zM10.5 4.92v3.5s-7 5.833-7 9.333v4.667h21v-4.667c0-3.5-7-9.333-7-9.333v-3.5h-2.333v2.333h-2.334V4.92H10.5zm3.5 5.833a4.666 4.666 0 110 9.333 4.666 4.666 0 010-9.333zm0 1.75a2.917 2.917 0 100 5.834 2.917 2.917 0 000-5.834z" fill="#fff" fill-opacity=".4"/></svg>