<svg width="67" height="75" fill="none" xmlns="http://www.w3.org/2000/svg"><path d="M15.711 22.442l1.446-2.498 1.963 1.132h.001c1.075.623 2.44.5 3.386-.31a10.232 10.232 0 013.192-1.85 2.939 2.939 0 001.957-2.77v-2.248h2.895v2.248c0 1.245.784 2.354 1.958 2.77a10.232 10.232 0 013.192 1.85c.948.81 2.308.934 3.385.31 0 0 0 0 0 0l1.965-1.132 1.445 2.498-1.923 1.108h-.001a2.942 2.942 0 00-1.425 3.084l-23.436-4.192zm0 0l1.924 1.108h0a2.942 2.942 0 011.425 3.083 10.162 10.162 0 00-.193 1.856c0 .62.078 1.233.193 1.856l-3.349-7.903zm26.785 12.094l-1.446 2.499-1.964-1.133h0a2.95 2.95 0 00-3.385.31 10.232 10.232 0 01-3.192 1.85s0 0 0 0l9.987-3.526zm0 0l-1.923-1.108h-.001a2.942 2.942 0 01-1.425-3.083 10.1 10.1 0 00.194-1.856c0-.62-.078-1.233-.194-1.855l3.35 7.902zM30.551 43.08h-2.894v-2.25a2.944 2.944 0 00-1.961-2.773h0a10.15 10.15 0 01-3.189-1.845 2.95 2.95 0 00-3.385-.31l-1.965 1.133-1.446-2.499 1.924-1.108h0a2.942 2.942 0 001.425-3.083s0 0 0 0L30.551 43.08zm5.895-14.59c0-4.042-3.295-7.326-7.342-7.326-4.048 0-7.342 3.284-7.342 7.325 0 4.042 3.294 7.325 7.342 7.325 4.047 0 7.342-3.283 7.342-7.325z" stroke="#E9AA09" stroke-width="1.5"/><path d="M30.55 28.49c0 .792-.646 1.44-1.447 1.44-.8 0-1.447-.648-1.447-1.44 0-.794.648-1.442 1.448-1.442.8 0 1.447.648 1.447 1.441z" stroke="#E9AA09" stroke-width="1.5"/><path d="M10.078 49.008v-.32l-.232-.222c-6.959-6.66-9.931-16.231-7.955-25.82h0C4.062 12.106 12.61 3.549 23.155 1.364c17.665-3.65 33.445 9.478 33.76 26.613l.003.17.076.152 8.562 17.079h0c.224.446.2.975-.063 1.4a1.45 1.45 0 01-1.232.686H56.92v11.708c0 3.21-2.62 5.825-5.842 5.825H39.34v7.617c0 .795-.645 1.441-1.447 1.441H11.525a1.443 1.443 0 01-1.447-1.441V49.008zm.133-22.94h0l2.786 1.605a13.742 13.742 0 000 1.633l-2.786 1.605a2.938 2.938 0 00-1.08 4.02l4.395 7.593h0c.828 1.427 2.628 1.868 4.02 1.08l.006-.003 2.843-1.638c.443.286.899.55 1.367.791v3.268a2.943 2.943 0 002.947 2.942h8.79a2.943 2.943 0 002.947-2.942v-3.268c.468-.24.924-.505 1.367-.791l2.843 1.638.005.003c1.394.789 3.194.345 4.02-1.08h0l4.395-7.593s0 0 0 0a2.938 2.938 0 00-1.08-4.02l-.374.65.375-.65-2.787-1.606a13.737 13.737 0 000-1.632l2.786-1.605s0 0 0 0a2.938 2.938 0 001.08-4.02s0 0 0 0l-4.395-7.594h0a2.954 2.954 0 00-4.022-1.078l-.003.002-2.843 1.638c-.443-.286-.9-.55-1.367-.792v-3.268a2.943 2.943 0 00-2.948-2.941H24.71a2.943 2.943 0 00-2.947 2.941v3.268c-.468.241-.924.505-1.367.792l-2.843-1.638-.003-.002a2.953 2.953 0 00-4.023 1.078h0L9.13 22.048s0 0 0 0a2.938 2.938 0 001.08 4.02z" stroke="#E9AA09" stroke-width="1.5"/></svg>