<svg width="65" height="75" fill="none" xmlns="http://www.w3.org/2000/svg"><path d="M7.858 38.92h0L6.307 44.7a1.441 1.441 0 001.022 1.765h0l5.796 1.55-5.267-9.095zm0 0a2.945 2.945 0 00-.763-2.842l-4.242-4.231a1.437 1.437 0 010-2.037l4.242-4.231a2.948 2.948 0 00.764-2.843v-.001l-1.552-5.779s0 0 0 0a1.441 1.441 0 011.022-1.765h0m.53 23.729l-.53-23.729M18.53 56.893h.004l5.793-1.548.003-.001a2.95 2.95 0 012.845.762h0l-.53.53.53-.53 4.242 4.23c.283.283.652.424 1.024.424s.741-.141 1.024-.423h0l4.24-4.23a2.963 2.963 0 012.844-.763h.003l5.796 1.548h.002a1.435 1.435 0 001.77-1.019h0l1.554-5.78-31.144 6.8zm0 0a1.448 1.448 0 01-1.77-1.02l1.77 1.02zm39.022-10.428h0a1.441 1.441 0 001.023-1.764s0 0 0 0l-1.552-5.779h0a2.947 2.947 0 01.764-2.844l4.242-4.231a1.437 1.437 0 000-2.037l-4.242-4.231a2.945 2.945 0 01-.764-2.842h0l1.552-5.78a1.441 1.441 0 00-1.023-1.766h0l-5.795-1.549a2.943 2.943 0 01-2.083-2.08s0 0 0 0l-1.553-5.778 9.43 40.681zm0 0l-5.792 1.55m5.792-1.55l-5.792 1.55m-11.218-41.7h0c-1.014.253-2.091-.016-2.837-.766l-.007-.007h0L33.46 1.17a1.45 1.45 0 00-2.04 0l-4.238 4.372-.008.01h0a2.973 2.973 0 01-2.839.762l-.007-.002h0l-5.79-1.546h-.003a1.46 1.46 0 00-1.775 1.018l23.781.531zm0 0l.012-.003m-.012.003l.012-.003m0 0l5.789-1.546h.002m-5.79 1.546l5.79-1.547M7.33 15.191l5.792-1.549s0 0 0 0m-5.792 1.55l5.793-1.55m2.085 36.453a2.943 2.943 0 00-2.083-2.08l2.083 2.08zm0 0s0 0 0 0l1.553 5.777-1.553-5.777zm36.552-2.08a2.942 2.942 0 00-2.086 2.077l2.086-2.077zm-5.415-43.25a1.449 1.449 0 011.776 1.02l-1.776-1.02zm-33.222 8.877a2.943 2.943 0 002.084-2.077l-2.084 2.077zm2.084-2.078l1.554-5.78-1.554 5.78zM50.77 30.828c0-10.083-8.223-18.282-18.328-18.282-10.105 0-18.328 8.2-18.328 18.282 0 10.084 8.223 18.283 18.328 18.283 10.105 0 18.328-8.2 18.328-18.283zm2.688 34.834l-.378.023-.206.318-4.805 7.407a1.45 1.45 0 01-1.207.645h0-.001 0-.001 0-.001 0-.001 0-.001 0-.001 0-.001 0-.001 0-.001 0-.001 0-.001 0-.001 0-.001 0-.001 0-.001 0-.001 0-.001 0-.001 0-.001 0-.001 0-.001 0-.001 0-.001 0-.001 0-.001 0-.001 0-.001 0-.001 0-.001 0-.001 0-.001 0-.001 0-.001 0-.001 0-.001 0-.001 0-.001 0-.001 0-.001 0-.001 0-.001 0-.001 0-.001 0-.001 0-.001 0-.001 0-.001 0-.001 0-.001 0-.001 0-.001 0-.001 0-.001 0-.001 0a1.456 1.456 0 01-1.2-.72l-.001-.002-6.09-10.658 1.213-1.208 4.14 1.105h.001a7.337 7.337 0 009.002-5.177s0 0 0 0l1.113-4.137 2.359-.63 5.993 10.353c.25.433.258.965.021 1.402v.001c-.237.44-.685.726-1.189.756h0l-8.712.522zM1.64 64.383l.001.001c.237.44.685.726 1.188.756h.001l8.712.522.378.023.206.318 4.805 7.407a1.45 1.45 0 001.207.645h.054a1.456 1.456 0 001.201-.723l6.089-10.657-1.212-1.209-4.15 1.108h-.001a7.295 7.295 0 01-1.903.253 7.35 7.35 0 01-7.089-5.426h0l-1.113-4.143-2.358-.631-5.994 10.354-.021 1.402zm0 0a1.439 1.439 0 01.022-1.401l-.021 1.401z" stroke="#E9AA09" stroke-width="1.5"/><path d="M41.137 30.39a9.068 9.068 0 11-18.136 0 9.068 9.068 0 0118.136 0z" stroke="#E9AA09" stroke-width="1.5"/></svg>