<svg width="67" height="75" viewBox="0 0 67 75" fill="none" xmlns="http://www.w3.org/2000/svg">
<path d="M15.7114 22.442L17.1572 19.9438L19.1204 21.0756C19.1207 21.0758 19.121 21.076 19.1214 21.0762C20.1963 21.6994 21.5611 21.5765 22.5071 20.7663C23.4668 19.9512 24.5397 19.3301 25.6989 18.9161C26.8729 18.4995 27.6565 17.3908 27.6565 16.1464V13.8979H30.5512V16.1465C30.5512 17.391 31.3349 18.4998 32.509 18.9163C33.6682 19.3304 34.7411 19.9515 35.7008 20.7667C36.6487 21.5764 38.0087 21.6996 39.086 21.0765C39.0862 21.0764 39.0864 21.0763 39.0866 21.0762L41.0505 19.9439L42.4963 22.4422L40.5726 23.5502L40.572 23.5506C39.494 24.1728 38.9194 25.4072 39.1473 26.6336L15.7114 22.442ZM15.7114 22.442L17.6351 23.5501L17.6357 23.5504C18.7136 24.1726 19.2882 25.4068 19.0604 26.6331C18.9451 27.2559 18.867 27.8684 18.867 28.4891C18.867 29.1096 18.945 29.7219 19.0603 30.3447L15.7114 22.442ZM42.4963 34.5363L41.0505 37.0346L39.0855 35.9017L39.0852 35.9016C38.0099 35.2822 36.65 35.401 35.7009 36.2118C34.7413 37.0269 33.6685 37.648 32.5093 38.0621C32.5089 38.0622 32.5086 38.0624 32.5082 38.0625L42.4963 34.5363ZM42.4963 34.5363L40.5726 33.4283L40.572 33.428C39.4939 32.8057 38.9194 31.5712 39.1474 30.3448C39.2627 29.7222 39.3407 29.1098 39.3407 28.4893C39.3407 27.8687 39.2627 27.2565 39.1474 26.6337L42.4963 34.5363ZM30.5512 43.0804H27.6565V40.8298C27.6565 39.5847 26.8699 38.4737 25.6957 38.0575L25.6955 38.0575C24.5398 37.6481 23.4673 37.0275 22.5073 36.2122C21.5599 35.4007 20.1949 35.2822 19.1217 35.902L17.1572 37.0346L15.7114 34.5363L17.6351 33.4281L17.6357 33.4278C18.7137 32.8056 19.2883 31.5711 19.0604 30.3448C19.0604 30.3449 19.0604 30.345 19.0604 30.3452L30.5512 43.0804ZM36.4457 28.4893C36.4457 24.4477 33.1511 21.1644 29.1037 21.1644C25.0564 21.1644 21.7617 24.4477 21.7617 28.4893C21.7617 32.5308 25.0564 35.8141 29.1037 35.8141C33.1511 35.8141 36.4457 32.5308 36.4457 28.4893Z" stroke="#E9AA09" stroke-width="1.5"/>
<path d="M30.5508 28.4892C30.5508 29.2822 29.9035 29.9307 29.1035 29.9307C28.3036 29.9307 27.6562 29.2822 27.6562 28.4892C27.6562 27.6961 28.3036 27.0476 29.1035 27.0476C29.9035 27.0476 30.5508 27.6961 30.5508 28.4892Z" stroke="#E9AA09" stroke-width="1.5"/>
<path d="M10.0776 49.0079V48.6875L9.84613 48.466C2.887 41.8064 -0.0854971 32.2346 1.89084 22.6458L1.89085 22.6458C4.06204 12.1052 12.6116 3.54852 23.1552 1.36411C40.8203 -2.28579 56.6002 10.8418 56.9149 27.9766L56.918 28.1468L56.9943 28.2989L65.5562 45.378L65.5566 45.3789C65.7803 45.8237 65.7567 46.3531 65.4929 46.7781C65.2282 47.2045 64.7629 47.4638 64.2611 47.4638H57.669H56.919V48.2138V59.1719C56.919 62.3813 54.2996 64.9967 51.077 64.9967H40.0903H39.3403V65.7467V72.6138C39.3403 73.4091 38.6952 74.0554 37.893 74.0554H11.5249C10.7228 74.0554 10.0776 73.4091 10.0776 72.6138V49.0079ZM10.2107 26.0678L10.2107 26.0678L12.9971 27.6729C12.9811 27.9418 12.9723 28.2141 12.9723 28.4892C12.9723 28.7644 12.9812 29.0368 12.9971 29.3055L10.2107 30.9107C8.80095 31.7226 8.31545 33.5215 9.13126 34.9304C9.13129 34.9305 9.13133 34.9306 9.13136 34.9306L13.5259 42.5241L13.5264 42.5248C14.3539 43.9511 16.1544 44.3917 17.5465 43.6037L17.5515 43.6008L20.3948 41.9626C20.8377 42.2489 21.2937 42.5132 21.7616 42.7544V46.0222C21.7616 47.6496 23.0821 48.9638 24.709 48.9638H33.4983C35.1252 48.9638 36.4457 47.6496 36.4457 46.0222V42.7544C36.9136 42.5133 37.3696 42.249 37.8125 41.9626L40.6558 43.6009L40.6607 43.6036C42.0549 44.393 43.8548 43.9486 44.6809 42.5248L44.6813 42.5241L49.0759 34.9306C49.0759 34.9306 49.076 34.9305 49.076 34.9304C49.8919 33.5214 49.4063 31.7228 47.9966 30.9107L47.6222 31.5606L47.9966 30.9107L45.2102 29.3055C45.2262 29.0367 45.235 28.7644 45.235 28.4892C45.235 28.214 45.2261 27.9417 45.2101 27.673L47.9965 26.0678C47.9966 26.0678 47.9966 26.0678 47.9966 26.0678C49.4063 25.2558 49.8918 23.457 49.076 22.0481C49.076 22.048 49.0759 22.0479 49.0759 22.0479L44.6813 14.4544L44.6809 14.4537C43.8549 13.0301 42.0512 12.5815 40.6586 13.3761L40.6558 13.3776L37.8125 15.0159C37.3696 14.7296 36.9136 14.4653 36.4457 14.2241V10.9563C36.4457 9.32888 35.1252 8.0147 33.4983 8.0147H24.709C23.0821 8.0147 21.7616 9.32888 21.7616 10.9563V14.2241C21.2937 14.4652 20.8377 14.7295 20.3948 15.0159L17.5515 13.3776L17.5489 13.3762C16.1427 12.5734 14.3448 13.0426 13.5263 14.4538L13.5259 14.4544L9.13136 22.0479C9.13133 22.0479 9.13129 22.048 9.13126 22.0481C8.31542 23.4571 8.80101 25.2557 10.2107 26.0678Z" stroke="#E9AA09" stroke-width="1.5"/>
</svg>
