<svg width="71" height="62" viewBox="0 0 71 62" fill="none" xmlns="http://www.w3.org/2000/svg">
<path d="M17.1719 31.989V56.8561H2.39453C1.59424 56.8561 0.947266 56.2092 0.947266 55.4089V33.4362C0.947266 32.6359 1.59424 31.989 2.39453 31.989H17.1719ZM12.0801 46.6198C12.0801 44.9921 10.7605 43.6725 9.13281 43.6725C7.50512 43.6725 6.18555 44.9921 6.18555 46.6198C6.18555 48.2475 7.50512 49.5671 9.13281 49.5671C10.7605 49.5671 12.0801 48.2475 12.0801 46.6198Z" stroke="#E9AA09" stroke-width="1.5"/>
<path d="M52.2207 23.1999L52.2832 22.392C52.3196 21.9218 52.4966 21.3836 52.7165 20.8398C52.9421 20.2817 53.2435 19.6462 53.5746 18.9651C53.6678 18.7733 53.7638 18.5773 53.8616 18.3773C54.4664 17.1413 55.1463 15.7516 55.7354 14.2643C57.1159 10.7787 57.8909 7.00905 56.1544 3.8031L56.1543 3.80285C55.3668 2.34764 54.0914 1.38993 52.5633 1.07366C51.8256 0.925156 51.1054 1.3534 50.8851 2.06641L52.2207 23.1999ZM52.2207 23.1999H53.031M52.2207 23.1999H53.031M53.031 23.1999H67.5068C68.9128 23.1999 70.0527 24.3398 70.0527 25.7458C70.0527 27.1518 68.9128 28.2917 67.5068 28.2917H59.6699C58.0422 28.2917 56.7227 29.6113 56.7227 31.239C56.7227 32.8667 58.0422 34.1862 59.6699 34.1862H67.5068C68.9128 34.1862 70.0527 35.3261 70.0527 36.7321C70.0527 38.1381 68.9128 39.278 67.5068 39.278H59.6699C58.0422 39.278 56.7227 40.5976 56.7227 42.2253C56.7227 43.853 58.0422 45.1726 59.6699 45.1726H67.5068C68.9128 45.1726 70.0527 46.3125 70.0527 47.7185C70.0527 49.1245 68.9128 50.2644 67.5068 50.2644H59.6699C58.0422 50.2644 56.7227 51.5839 56.7227 53.2116C56.7227 54.8393 58.0422 56.1589 59.6699 56.1589H62.9658C64.3718 56.1589 65.5117 57.2988 65.5117 58.7048C65.5117 60.1108 64.3718 61.2507 62.9658 61.2507H49.3959C43.1702 61.2507 37.0211 60.2531 31.1174 58.2851L31.1172 58.285C28.5087 57.4162 25.805 56.9398 23.0664 56.8662M53.031 23.1999L30.8802 58.9966C28.11 58.0739 25.2304 57.6062 22.3164 57.6062H23.0664V56.8662M23.0664 56.8662V31.9636C25.7901 31.7796 28.4076 30.6013 30.3449 28.6657C31.4642 27.575 32.2956 26.73 32.9764 26.0381C34.4156 24.5753 35.182 23.7964 36.574 22.8253C41.8276 19.1852 44.857 15.8333 46.8526 12.4359C48.6532 9.37046 49.5931 6.29341 50.5807 3.05993C50.6814 2.73045 50.7825 2.39936 50.8851 2.06649L23.0664 56.8662Z" stroke="#E9AA09" stroke-width="1.5"/>
</svg>
